<svg fill="#50667b" height="512" viewBox="0 0 32 32" width="512" xmlns="http://www.w3.org/2000/svg">
    <path d="M16.889 21.333h-1.778c-0.982 0-1.778 0.796-1.778 1.778s0.796 1.778 1.778 1.778h1.778c0.982 0 1.778-0.796 1.778-1.778s-0.796-1.778-1.778-1.778z"></path>
    <path d="M16 0c-8.837 0-16 7.163-16 16s7.163 16 16 16c8.837 0 16-7.163 16-16s-7.163-16-16-16zM16 28.444c-6.873 0-12.444-5.572-12.444-12.444s5.572-12.444 12.444-12.444c6.873 0 12.444 5.572 12.444 12.444s-5.572 12.444-12.444 12.444z"></path>
    <path d="M16 7.111c-3.982 0-7.111 2.347-7.111 5.333 0 0.982 0.796 1.778 1.778 1.778s1.778-0.796 1.778-1.778c0-0.729 1.387-1.778 3.556-1.778s3.556 1.049 3.556 1.778c-0.315 0.864-1.087 1.488-2.017 1.581-1.953 0.671-3.323 2.483-3.323 4.616 0 0.090 0.002 0.179 0.007 0.268l-0.001 0.645h3.556v-0.658c-0.007-0.055-0.011-0.119-0.011-0.183 0-0.525 0.271-0.987 0.681-1.253 2.513-0.419 4.436-2.463 4.662-4.996 0.002-3.008-3.127-5.355-7.11-5.355z"></path>
</svg>